# xmcd
# 
# Track frame offsets:
#     180
#     10995
#     21565
#     33035
#     44128
#     54878
#     64053
#     75426
#     84738
#     96328
#     107407
#     117705
#     128087
#     139304
# 
# Disc length: 2013
# 
# Revision: 1
# Processed by: cddbd v1.5.2PL0 Copyright (c) Steve Scherf et al.
# Submitted via: fre:ac v1.0.31
# 
DISCID=bc07db0e
DTITLE=Patsie Cline - 28 Great Country Songs
DYEAR=0
DGENRE=Country
TTITLE0=I cried all the way to the altar
TTITLE1=Three cigarettes in the ashtray
TTITLE2=The heart you break may be your own
TTITLE3=I can't forget
TTITLE4=Secrets
TTITLE5=I love you honey
TTITLE6=I've loved and lost again
TTITLE7=Try again
TTITLE8=Let the teardrops fall
TTITLE9=Stop the world and let me off
TTITLE10=Too many secrets
TTITLE11=Turn the cards slowly
TTITLE12=Just out of reach
TTITLE13=Today, tomorrow and forever
EXTD=
EXTT0=
EXTT1=
EXTT2=
EXTT3=
EXTT4=
EXTT5=
EXTT6=
EXTT7=
EXTT8=
EXTT9=
EXTT10=
EXTT11=
EXTT12=
EXTT13=
PLAYORDER=
